<?xml version="1.0" standalone="no"?>
<!DOCTYPE svg PUBLIC "-//W3C//DTD SVG 20010904//EN"
 "http://www.w3.org/TR/2001/REC-SVG-20010904/DTD/svg10.dtd">
<svg version="1.0" xmlns="http://www.w3.org/2000/svg"
 width="300.000000pt" height="300.000000pt" viewBox="0 0 300.000000 300.000000"
 preserveAspectRatio="xMidYMid meet">
<metadata>
Created by potrace 1.10, written by Peter Selinger 2001-2011
</metadata>
<g transform="translate(0.000000,300.000000) scale(0.100000,-0.100000)"
fill="#ffffff" stroke="none">
<path d="M1597 2062 l-376 -376 -28 25 c-15 14 -121 98 -235 187 l-208 162
-95 -47 -95 -48 0 -466 0 -466 95 -47 c54 -27 100 -44 107 -40 7 5 113 86 236
182 l224 174 361 -359 c199 -197 366 -363 372 -370 8 -9 67 11 248 84 l237 95
0 749 c0 412 -1 749 -3 749 -2 0 -107 42 -234 94 l-230 94 -376 -376z m603
240 l185 -77 3 -721 c2 -570 -1 -723 -10 -731 -22 -17 -372 -153 -393 -153
-12 0 -149 129 -375 355 -307 306 -360 355 -386 355 -23 0 -74 -34 -224 -151
-107 -83 -208 -160 -224 -171 l-28 -21 -69 34 -69 33 2 445 3 445 30 17 c17
10 47 25 67 33 l37 16 188 -147 c244 -190 262 -203 287 -203 14 0 138 117 381
360 285 285 366 360 385 359 14 0 108 -35 210 -77z"/>
<path d="M1923 1890 c-45 -27 -414 -317 -440 -347 -32 -34 -29 -64 10 -100 43
-40 408 -328 435 -342 33 -18 50 -13 67 19 13 24 15 85 15 383 0 343 -1 355
-21 381 -24 31 -25 31 -66 6z m43 -767 c-2 -3 -80 56 -173 130 -92 73 -200
158 -240 189 l-71 55 241 191 242 191 3 -376 c1 -207 0 -378 -2 -380z"/>
<path d="M726 1778 c-14 -19 -16 -63 -16 -284 0 -249 1 -263 21 -288 11 -14
25 -26 31 -26 15 0 242 225 274 272 18 25 24 45 21 60 -9 34 -269 288 -295
288 -11 0 -28 -10 -36 -22z m304 -278 c-1 -3 -64 -70 -140 -150 l-140 -145 0
290 0 290 140 -140 c77 -77 140 -142 140 -145z"/>
</g>
</svg>
